<?xml version="1.0" standalone="no"?>
<!DOCTYPE svg PUBLIC "-//W3C//DTD SVG 20010904//EN"
 "https://www.w3.org/TR/2001/REC-SVG-20010904/DTD/svg10.dtd">
<svg version="1.0" xmlns="https://www.w3.org/2000/svg"
 width="3108.000000pt" height="3108.000000pt" viewBox="0 0 3108.000000 3108.000000"
 preserveAspectRatio="xMidYMid meet">
<metadata>
Created by potrace 1.14, written by Peter Selinger 2001-2017
</metadata>
<g transform="translate(0.000000,3108.000000) scale(0.100000,-0.100000)"
fill="#000000" stroke="none">
<path d="M15145 31074 c-3987 -63 -7704 -1028 -10530 -2732 -1531 -924 -2759
-2066 -3554 -3304 -990 -1543 -1292 -3186 -880 -4798 289 -1130 933 -2222
1894 -3209 853 -876 1984 -1689 3217 -2311 130 -66 241 -120 247 -120 6 0 -23
51 -63 113 -339 517 -524 1036 -577 1620 -15 163 -7 539 16 707 48 362 151
740 305 1115 73 177 270 568 376 745 562 942 1427 1898 2604 2876 802 667
1824 1384 2630 1846 1093 626 2131 962 3405 1103 740 81 1653 85 2380 10 1238
-129 2359 -458 3230 -950 167 -94 425 -266 580 -387 143 -110 445 -408 536
-528 97 -128 165 -196 257 -258 186 -123 440 -203 805 -253 196 -27 744 -37
1018 -20 1652 106 3836 704 5334 1461 1080 546 1604 1077 1490 1513 -22 86
-53 139 -170 294 -743 989 -1819 1924 -3115 2708 -2699 1632 -6339 2615
-10160 2744 -331 11 -1002 19 -1275 15z"/>
<path d="M10196 22965 c-331 -216 -786 -535 -1131 -794 -1385 -1040 -2436
-2079 -3094 -3061 -425 -634 -683 -1229 -782 -1805 -87 -509 26 -1245 330
-2155 70 -207 180 -507 231 -625 17 -40 21 -42 241 -139 1484 -657 3168 -1126
5179 -1440 922 -145 1674 -236 3425 -416 2166 -223 3130 -370 3905 -595 536
-156 1134 -411 1542 -658 668 -404 1100 -875 1266 -1380 155 -469 70 -946
-254 -1432 -40 -60 -103 -148 -140 -195 -103 -129 -413 -434 -564 -554 -467
-370 -1058 -689 -1708 -921 -94 -34 -158 -62 -150 -66 61 -33 881 -47 1163
-21 1017 96 1985 396 2904 899 2018 1106 3820 3104 5343 5928 146 270 528
1030 528 1050 0 18 -245 231 -495 431 -272 216 -509 389 -825 599 -1865 1240
-4269 2130 -7065 2615 -1091 189 -2123 321 -4090 525 -1142 118 -1720 185
-2245 260 -1377 197 -2185 453 -2860 905 -649 435 -1022 907 -1137 1440 -28
130 -25 418 6 560 79 371 295 762 594 1077 39 40 68 76 65 78 -3 3 -84 -47
-182 -110z"/>
<path d="M28516 14198 c-251 -520 -622 -1203 -935 -1726 -1647 -2750 -3617
-4611 -5801 -5482 -801 -320 -1584 -492 -2400 -530 -360 -17 -671 9 -1085 90
-265 52 -264 52 -398 19 -701 -175 -1406 -262 -2212 -276 -773 -13 -1488 51
-2226 197 -1694 336 -3011 1062 -3554 1960 -76 126 -121 178 -213 247 -233
176 -578 281 -1112 340 -137 15 -248 18 -650 18 -489 0 -600 -5 -1020 -45
-1425 -138 -3104 -538 -4350 -1038 -1027 -411 -1663 -853 -1808 -1254 -35 -98
-37 -243 -4 -331 63 -173 462 -767 765 -1140 281 -348 794 -877 1145 -1182
2535 -2205 6465 -3646 10867 -3985 1076 -82 2299 -97 3360 -39 4198 227 8029
1472 10700 3478 1305 980 2303 2135 2879 3331 338 702 531 1398 598 2150 16
183 16 713 0 885 -32 339 -76 603 -153 914 -298 1211 -1023 2400 -2093 3438
-99 95 -183 173 -188 173 -5 0 -56 -96 -112 -212z"/>
</g>
</svg>
