<?xml version="1.0" standalone="no"?>
<!DOCTYPE svg PUBLIC "-//W3C//DTD SVG 20010904//EN"
 "http://www.w3.org/TR/2001/REC-SVG-20010904/DTD/svg10.dtd">
<svg version="1.0" xmlns="http://www.w3.org/2000/svg"
 width="3108.000000pt" height="3108.000000pt" viewBox="0 0 3108.000000 3108.000000"
 preserveAspectRatio="xMidYMid meet">
<metadata>
Created by potrace 1.14, written by Peter Selinger 2001-2017
</metadata>
<g transform="translate(0.000000,3108.000000) scale(0.100000,-0.100000)"
fill="#000000" stroke="none">
<path d="M15145 31074 c-4162 -66 -8041 -1119 -10890 -2957 -1358 -876 -2464
-1943 -3194 -3079 -1247 -1943 -1397 -4041 -430 -6004 768 -1558 2225 -2968
4214 -4078 275 -154 837 -434 1141 -569 1482 -657 3170 -1126 5184 -1441 877
-138 1642 -231 3185 -391 2708 -280 3556 -417 4447 -716 541 -182 1114 -459
1495 -725 247 -172 515 -415 666 -604 574 -717 559 -1467 -45 -2233 -112 -141
-406 -432 -568 -561 -513 -407 -1152 -740 -1888 -983 -850 -280 -1750 -423
-2777 -440 -773 -13 -1488 51 -2226 197 -1694 336 -3011 1062 -3554 1960 -76
126 -121 178 -213 247 -233 176 -578 281 -1112 340 -137 15 -248 18 -650 18
-490 0 -600 -5 -1020 -45 -2052 -199 -4437 -903 -5535 -1635 -183 -122 -278
-199 -401 -327 -112 -117 -183 -222 -222 -330 -35 -97 -37 -243 -5 -330 64
-174 463 -768 766 -1141 283 -350 792 -875 1145 -1182 1893 -1648 4556 -2871
7692 -3534 2787 -589 5870 -686 8730 -275 4675 673 8581 2634 10603 5323 818
1088 1271 2214 1379 3421 18 211 16 723 -6 940 -128 1311 -679 2534 -1660
3680 -1900 2222 -5330 3913 -9351 4610 -1079 186 -2101 318 -3995 515 -1961
204 -2679 300 -3387 456 -949 208 -1634 524 -2203 1014 -418 360 -657 727
-747 1145 -28 130 -25 418 6 560 66 308 224 628 449 910 165 206 438 465 686
650 767 571 1781 975 2939 1170 533 90 955 127 1552 137 1691 28 3319 -335
4505 -1004 154 -87 428 -270 575 -385 143 -110 445 -408 536 -528 97 -128 165
-196 257 -258 191 -126 461 -209 847 -259 116 -15 214 -18 565 -18 429 0 506
4 890 46 1603 175 3657 786 4978 1481 995 523 1476 1034 1367 1451 -22 86 -53
139 -170 294 -743 989 -1819 1924 -3115 2708 -2699 1632 -6339 2615 -10160
2744 -331 11 -1002 19 -1275 15z"/>
</g>
</svg>
