<?xml version="1.0" standalone="no"?>
<!DOCTYPE svg PUBLIC "-//W3C//DTD SVG 20010904//EN"
 "http://www.w3.org/TR/2001/REC-SVG-20010904/DTD/svg10.dtd">
<svg version="1.0" xmlns="http://www.w3.org/2000/svg"
 width="260.000000pt" height="280.000000pt" viewBox="0 0 260.000000 280.000000"
 preserveAspectRatio="xMidYMid meet">
<metadata>
Created by potrace 1.16, written by Peter Selinger 2001-2019
</metadata>
<g transform="translate(0.000000,280.000000) scale(0.100000,-0.100000)"
fill="#000000" stroke="none">
<path d="M550 1995 c0 -50 4 -85 10 -85 6 0 10 30 10 70 0 56 3 70 15 70 12 0
15 -16 15 -80 l0 -80 105 0 105 0 0 76 c0 67 2 76 20 81 11 3 20 12 20 19 0
11 -29 14 -150 14 l-150 0 0 -85z"/>
<path d="M1025 1972 c-29 -10 -51 -24 -53 -34 -3 -14 10 -17 75 -22 181 -14
306 -54 393 -126 34 -28 34 -28 16 -49 -11 -12 -16 -24 -13 -28 13 -12 190
-83 209 -83 21 0 22 16 8 110 -23 148 -22 146 -67 110 l-25 -19 -51 40 c-64
51 -131 85 -204 104 -78 20 -224 19 -288 -3z"/>
<path d="M613 1828 c16 -42 74 -72 117 -63 31 7 80 56 80 81 0 11 -21 14 -105
14 l-105 0 13 -32z"/>
<path d="M615 1724 c-87 -47 -124 -114 -125 -221 l0 -73 221 0 222 0 -5 78
c-5 96 -33 152 -96 196 -37 26 -54 31 -115 33 -52 3 -80 -1 -102 -13z"/>
<path d="M1742 1533 l2 -88 5 70 c5 53 10 70 21 70 12 0 16 -17 18 -77 l3 -78
104 0 105 0 0 80 c0 73 2 80 20 80 11 0 20 7 20 15 0 13 -23 15 -150 15 l-150
0 2 -87z"/>
<path d="M1790 1387 c0 -42 73 -92 120 -82 32 7 75 46 83 75 5 19 0 20 -99 20
-78 0 -104 -3 -104 -13z"/>
<path d="M831 1263 c1 -49 25 -202 32 -210 4 -4 23 1 42 11 l34 19 43 -37
c131 -112 343 -155 501 -100 34 12 47 21 45 33 -3 13 -25 19 -107 28 -191 22
-279 52 -361 122 -34 29 -35 30 -15 45 16 11 17 17 8 27 -14 14 -191 89 -210
89 -8 0 -13 -12 -12 -27z"/>
<path d="M1810 1269 c-86 -35 -131 -107 -138 -221 l-5 -78 222 0 221 0 0 70
c0 109 -38 178 -122 221 -41 21 -135 25 -178 8z"/>
</g>
</svg>
